<?xml version="1.0" encoding="UTF-8" standalone="no"?>
<!-- Created with Inkscape (http://www.inkscape.org/) -->

<svg
   width="109.92462"
   height="174.4256"
   viewBox="0 0 29.084221 46.150107"
   version="1.1"
   id="svg9080"
   inkscape:version="1.3 (0e150ed6c4, 2023-07-21)"
   sodipodi:docname="nivelmate.svg"
   inkscape:export-filename="C:\Users\Ronald\Pictures\IntexriLogo.png"
   inkscape:export-xdpi="96"
   inkscape:export-ydpi="96"
   xmlns:inkscape="http://www.inkscape.org/namespaces/inkscape"
   xmlns:sodipodi="http://sodipodi.sourceforge.net/DTD/sodipodi-0.dtd"
   xmlns="http://www.w3.org/2000/svg"
   xmlns:svg="http://www.w3.org/2000/svg"
   xmlns:rdf="http://www.w3.org/1999/02/22-rdf-syntax-ns#"
   xmlns:cc="http://creativecommons.org/ns#"
   xmlns:dc="http://purl.org/dc/elements/1.1/">
  <defs
     id="defs9074" />
  <sodipodi:namedview
     id="base"
     pagecolor="#ffffff"
     bordercolor="#666666"
     borderopacity="1.0"
     inkscape:pageopacity="0.0"
     inkscape:pageshadow="2"
     inkscape:zoom="1.4142136"
     inkscape:cx="232.63812"
     inkscape:cy="245.36605"
     inkscape:document-units="px"
     inkscape:current-layer="layer1"
     showgrid="false"
     showborder="true"
     units="px"
     inkscape:showpageshadow="false"
     inkscape:window-width="1728"
     inkscape:window-height="992"
     inkscape:window-x="-8"
     inkscape:window-y="-8"
     inkscape:window-maximized="1"
     inkscape:snap-intersection-paths="true"
     inkscape:snap-smooth-nodes="true"
     inkscape:snap-midpoints="true"
     inkscape:pagecheckerboard="0"
     inkscape:deskcolor="#505050" />
  <metadata
     id="metadata9077">
    <rdf:RDF>
      <cc:Work
         rdf:about="">
        <dc:format>image/svg+xml</dc:format>
        <dc:type
           rdf:resource="http://purl.org/dc/dcmitype/StillImage" />
      </cc:Work>
    </rdf:RDF>
  </metadata>
  <g
     inkscape:label="Layer 1"
     inkscape:groupmode="layer"
     id="layer1"
     transform="translate(-72.029193,-221.18191)">
    <g
       id="g9703"
       transform="translate(3.5961516,1.7496114)">
      <g
         id="g7">
        <circle
           r="6.3500004"
           cy="225.7823"
           cx="-82.975159"
           id="circle9673"
           style="fill:#27c862;fill-opacity:1;stroke:none;stroke-width:0.529167;stroke-linecap:round;stroke-linejoin:round;stroke-miterlimit:4;stroke-dasharray:none;stroke-opacity:1"
           transform="scale(-1,1)" />
        <g
           id="g6">
          <g
             id="g3"
             style="fill:#27c862;fill-opacity:1"
             transform="matrix(-1,0,0,1,148.11088,0)">
            <path
               d="m 68.433043,249.12967 v 0.19016 16.26258 c 0.38935,0 0.773966,-0.0142 1.152901,-0.0419 0.378934,-0.0277 0.752132,-0.069 1.118795,-0.12299 0.366663,-0.054 0.726984,-0.12051 1.07952,-0.19947 0.352536,-0.079 0.697493,-0.17026 1.034046,-0.27285 0.336552,-0.1026 0.664688,-0.2167 0.983402,-0.34158 0.318714,-0.12489 0.628056,-0.26034 0.927075,-0.40618 0.299019,-0.14584 0.587595,-0.30171 0.865064,-0.46716 0.277468,-0.16544 0.543822,-0.34028 0.797884,-0.52399 0.254062,-0.18372 0.495704,-0.37659 0.724503,-0.57723 0.2288,-0.20064 0.444791,-0.40906 0.646473,-0.62529 0.201681,-0.21622 0.389015,-0.44029 0.561722,-0.67076 0.172708,-0.23046 0.330445,-0.4677 0.472323,-0.71106 0.07094,-0.12169 0.138138,-0.24483 0.201021,-0.36949 0.06288,-0.12466 0.121621,-0.25081 0.176217,-0.37827 0.0546,-0.12746 0.104819,-0.25644 0.150895,-0.38654 0.04608,-0.1301 0.08773,-0.2612 0.125057,-0.39378 0.03733,-0.13257 0.07036,-0.26613 0.0987,-0.401 0.02834,-0.13488 0.05219,-0.27124 0.07131,-0.40825 0.01913,-0.13701 0.03373,-0.27495 0.04341,-0.41393 0.0097,-0.13897 0.01447,-0.27883 0.01447,-0.41961 v -8.32145 z"
               style="fill:#27c862;fill-opacity:1;stroke-width:0.264583px"
               id="path3" />
            <path
               d="m 79.677834,232.44334 c -0.38935,0 -0.773967,0.0142 -1.152901,0.0419 -0.378935,0.0277 -0.752132,0.069 -1.118795,0.12299 -0.366663,0.054 -0.726985,0.12051 -1.07952,0.19947 -0.352536,0.079 -0.697493,0.17026 -1.034046,0.27285 -0.336552,0.1026 -0.664689,0.2167 -0.983402,0.34158 -0.318714,0.12489 -0.628057,0.26034 -0.927075,0.40618 -0.299019,0.14584 -0.587596,0.30171 -0.865064,0.46716 -0.277468,0.16544 -0.543822,0.34028 -0.797884,0.52399 -0.254062,0.18372 -0.495704,0.37659 -0.724504,0.57723 -0.228799,0.20064 -0.44479,0.40906 -0.646472,0.62529 -0.201681,0.21622 -0.389015,0.44029 -0.561723,0.67076 -0.172707,0.23046 -0.330445,0.4677 -0.472322,0.71106 -0.07094,0.12169 -0.138138,0.24483 -0.201022,0.36949 -0.06288,0.12466 -0.12162,0.25081 -0.176216,0.37827 -0.0546,0.12746 -0.104819,0.25644 -0.150895,0.38654 -0.04608,0.1301 -0.08773,0.2612 -0.125057,0.39378 -0.03733,0.13257 -0.07036,0.26613 -0.0987,0.401 -0.02834,0.13488 -0.05219,0.27124 -0.07131,0.40825 -0.01913,0.13701 -0.03373,0.27495 -0.04341,0.41393 -0.0097,0.13897 -0.01447,0.27883 -0.01447,0.41961 v 8.64288 h 11.244791 v -0.51108 z"
               style="fill:#27c862;fill-opacity:1;stroke-width:0.264583px"
               id="path2" />
          </g>
          <g
             id="g5"
             style="fill:#27c862;fill-opacity:1"
             transform="translate(17.839431)">
            <path
               d="m 68.433043,249.12967 v 0.19016 16.26258 c 0.38935,0 0.773966,-0.0142 1.152901,-0.0419 0.378934,-0.0277 0.752132,-0.069 1.118795,-0.12299 0.366663,-0.054 0.726984,-0.12051 1.07952,-0.19947 0.352536,-0.079 0.697493,-0.17026 1.034046,-0.27285 0.336552,-0.1026 0.664688,-0.2167 0.983402,-0.34158 0.318714,-0.12489 0.628056,-0.26034 0.927075,-0.40618 0.299019,-0.14584 0.587595,-0.30171 0.865064,-0.46716 0.277468,-0.16544 0.543822,-0.34028 0.797884,-0.52399 0.254062,-0.18372 0.495704,-0.37659 0.724503,-0.57723 0.2288,-0.20064 0.444791,-0.40906 0.646473,-0.62529 0.201681,-0.21622 0.389015,-0.44029 0.561722,-0.67076 0.172708,-0.23046 0.330445,-0.4677 0.472323,-0.71106 0.07094,-0.12169 0.138138,-0.24483 0.201021,-0.36949 0.06288,-0.12466 0.121621,-0.25081 0.176217,-0.37827 0.0546,-0.12746 0.104819,-0.25644 0.150895,-0.38654 0.04608,-0.1301 0.08773,-0.2612 0.125057,-0.39378 0.03733,-0.13257 0.07036,-0.26613 0.0987,-0.401 0.02834,-0.13488 0.05219,-0.27124 0.07131,-0.40825 0.01913,-0.13701 0.03373,-0.27495 0.04341,-0.41393 0.0097,-0.13897 0.01447,-0.27883 0.01447,-0.41961 v -8.32145 z"
               style="fill:#27c862;fill-opacity:1;stroke-width:0.264583px"
               id="path4" />
            <path
               d="m 79.677834,232.44334 c -0.38935,0 -0.773967,0.0142 -1.152901,0.0419 -0.378935,0.0277 -0.752132,0.069 -1.118795,0.12299 -0.366663,0.054 -0.726985,0.12051 -1.07952,0.19947 -0.352536,0.079 -0.697493,0.17026 -1.034046,0.27285 -0.336552,0.1026 -0.664689,0.2167 -0.983402,0.34158 -0.318714,0.12489 -0.628057,0.26034 -0.927075,0.40618 -0.299019,0.14584 -0.587596,0.30171 -0.865064,0.46716 -0.277468,0.16544 -0.543822,0.34028 -0.797884,0.52399 -0.254062,0.18372 -0.495704,0.37659 -0.724504,0.57723 -0.228799,0.20064 -0.44479,0.40906 -0.646472,0.62529 -0.201681,0.21622 -0.389015,0.44029 -0.561723,0.67076 -0.172707,0.23046 -0.330445,0.4677 -0.472322,0.71106 -0.07094,0.12169 -0.138138,0.24483 -0.201022,0.36949 -0.06288,0.12466 -0.12162,0.25081 -0.176216,0.37827 -0.0546,0.12746 -0.104819,0.25644 -0.150895,0.38654 -0.04608,0.1301 -0.08773,0.2612 -0.125057,0.39378 -0.03733,0.13257 -0.07036,0.26613 -0.0987,0.401 -0.02834,0.13488 -0.05219,0.27124 -0.07131,0.40825 -0.01913,0.13701 -0.03373,0.27495 -0.04341,0.41393 -0.0097,0.13897 -0.01447,0.27883 -0.01447,0.41961 v 8.64288 h 11.244791 v -0.51108 z"
               style="fill:#27c862;fill-opacity:1;stroke-width:0.264583px"
               id="path5" />
          </g>
        </g>
      </g>
    </g>
  </g>
</svg>
